<svg xmlns="http://www.w3.org/2000/svg" xmlns:xlink="http://www.w3.org/1999/xlink"><symbol id="paws" viewBox="0 0 193 135"><g fill="none">
    <path d="M42.976 33.331c6.819 2.514 15.007-2.77 18.29-11.803 3.281-9.033.414-18.39-6.404-20.903-6.82-2.511-15.007 2.772-18.29 11.805-3.282 9.033-.415 18.39 6.404 20.901ZM17.065 47.737c7.133-.623 12.257-8.785 11.446-18.236-.813-9.448-7.254-16.603-14.387-15.984-7.133.625-12.256 8.788-11.444 18.238.812 9.448 7.253 16.603 14.385 15.982ZM72.619 47.417c6.26 3.705 15.257-.016 20.095-8.308 4.838-8.297 3.685-18.02-2.577-21.725-6.26-3.701-15.258.021-20.095 8.313-4.838 8.296-3.683 18.018 2.577 21.72ZM106.151 57.246c-4.059-5.938-13.639-6.397-21.398-1.022-7.762 5.379-10.761 14.55-6.703 20.49 4.058 5.937 13.638 6.397 21.398 1.02 7.759-5.377 10.76-14.548 6.703-20.488ZM64.47 58.367c-.774-5.394-4.058-10.313-9.307-12.808-5.248-2.493-11.108-1.918-15.734.908-5.113 3.124-8.384 7.206-12.788 8.99-4.404 1.784-16.738-3.53-24.417 10.512-5.424 9.918-.445 22.455 9.723 27.286 7.728 3.672 13.844 3.262 18.335 5.394 4.49 2.132 8.064 7.149 15.791 10.82 10.168 4.831 22.944.732 27.1-9.789 5.882-14.895-6.033-21.104-7.466-25.66-1.431-4.557-.381-9.694-1.237-15.653ZM132.983 87.305c3.534-2.5 3.74-8.325.461-13.011-3.279-4.685-8.801-6.456-12.334-3.956-3.533 2.502-3.739 8.326-.461 13.012 3.28 4.685 8.802 6.456 12.334 3.955ZM131.18 104.961c2.115-3.721-.116-9.016-4.986-11.83-4.869-2.812-10.531-2.075-12.648 1.645-2.114 3.721.118 9.016 4.987 11.829 4.869 2.812 10.531 2.076 12.647-1.644ZM149.891 77.486c3.924-1.821 5.164-7.512 2.773-12.711-2.395-5.202-7.513-7.94-11.437-6.118-3.922 1.821-5.162 7.514-2.771 12.713 2.394 5.2 7.513 7.937 11.435 6.115ZM166.028 64.307c-4.264-.022-7.735 4.536-7.752 10.182-.016 5.648 3.427 10.242 7.691 10.265 4.263.022 7.735-4.536 7.751-10.183.016-5.646-3.426-10.24-7.69-10.264ZM152.41 85.217c-2.886-1.453-6.391-1.51-9.384.225-2.992 1.734-4.699 4.813-4.893 8.05-.215 3.579.661 6.576.036 9.35-.626 2.773-7.391 7.036-3.167 15.589 2.984 6.041 10.769 7.854 16.566 4.493 4.406-2.554 6.28-5.703 8.84-7.188 2.559-1.484 6.21-1.537 10.615-4.091 5.797-3.36 8.136-11.041 4.428-16.663-5.249-7.96-12.308-4.207-15.01-5.051-2.701-.845-4.843-3.109-8.031-4.714Z" fill="CurrentColor"/>
</g></symbol><symbol id="right" viewBox="0 0 93 64"><g fill="none">
    <path d="M40 53.213a29.836 29.836 0 0 0 15.297 8.21 29.76 29.76 0 0 0 17.26-1.707 29.902 29.902 0 0 0 13.408-11.049A30.089 30.089 0 0 0 91 32a30.089 30.089 0 0 0-5.035-16.667 29.902 29.902 0 0 0-13.407-11.05 29.76 29.76 0 0 0-17.262-1.707A29.837 29.837 0 0 0 40 10.786" stroke="CurrentColor" stroke-width="3" stroke-linecap="round"/>
    <path d="M5 32h60M58 25l7 7-7 7" stroke="CurrentColor" stroke-width="3" stroke-linecap="round" stroke-linejoin="round"/>
</g></symbol></svg>