<svg viewBox="0 0 93 64" fill="none" xmlns="http://www.w3.org/2000/svg">
<path d="M40 53.2132C44.1781 57.4088 49.5013 60.266 55.2966 61.4235C61.0918 62.5811 67.0986 61.987 72.5576 59.7164C78.0166 57.4457 82.6824 53.6006 85.9651 48.6671C89.2479 43.7336 91 37.9334 91 32C91 26.0666 89.2479 20.2664 85.9651 15.3329C82.6824 10.3994 78.0166 6.55425 72.5576 4.28363C67.0986 2.013 61.0918 1.4189 55.2965 2.57646C49.5013 3.73401 44.1781 6.59123 40 10.7868" stroke="CurrentColor" stroke-width="3" stroke-linecap="round"/>
<path d="M5 32L65 32" stroke="CurrentColor" stroke-width="3" stroke-linecap="round" stroke-linejoin="round"/>
<path d="M58 25L65 32L58 39" stroke="CurrentColor" stroke-width="3" stroke-linecap="round" stroke-linejoin="round"/>
</svg>
