<svg viewBox="0 0 65 66" fill="none" xmlns="http://www.w3.org/2000/svg">
<rect y="0.5" width="65" height="65" rx="16" fill="CurrentColor"/>
<path d="M32.5151 33.6762C38.5019 33.6742 43.3512 28.8191 43.3493 22.8342C43.3474 16.8474 38.4923 11.9981 32.5074 12C26.5225 12.0019 21.6712 16.8571 21.6731 22.8419C21.6809 28.8249 26.5321 33.6723 32.5151 33.6762ZM32.5151 18.3538C34.9948 18.3538 37.0052 20.3642 37.0052 22.8439C37.0052 25.3236 34.9948 27.3321 32.5151 27.3321C30.0354 27.3321 28.025 25.3217 28.025 22.8419C28.0288 20.3642 30.0373 18.3557 32.5151 18.3538ZM36.8971 42.5193C39.1276 42.0133 41.2559 41.1307 43.1929 39.9121C44.6684 38.96 45.0932 36.994 44.1411 35.5186C43.2045 34.0663 41.2771 33.6279 39.8055 34.5336C35.3424 37.3243 29.6762 37.3243 25.2131 34.5336C23.7318 33.6047 21.7755 34.0489 20.8427 35.5282C19.9061 37.0095 20.3464 38.9716 21.8296 39.9083C21.8315 39.9083 21.8334 39.9102 21.8334 39.9102C23.7685 41.1269 25.8968 42.0094 28.1254 42.5174L22.0652 48.5776C20.8582 49.8522 20.9142 51.8645 22.1907 53.0716C23.417 54.2303 25.3328 54.2303 26.5592 53.0716L32.5112 47.1156L38.4672 53.0716C39.707 54.3095 41.7136 54.3095 42.9534 53.0716C44.1913 51.8317 44.1913 49.8252 42.9534 48.5853L36.8971 42.5193Z" fill="white"/>
</svg>
