<svg viewBox="0 0 193 135" fill="none" xmlns="http://www.w3.org/2000/svg">
<path d="M42.9759 33.3311C49.795 35.8451 57.9828 30.5602 61.2661 21.5277C64.5474 12.495 61.6802 3.13705 54.8621 0.62456C48.0415 -1.88597 39.8546 3.39747 36.5715 12.4299C33.29 21.4626 36.1572 30.8206 42.9759 33.3311Z" fill="CurrentColor"/>
<path d="M17.0652 47.737C24.1985 47.1142 29.3216 38.9525 28.5109 29.5013C27.6985 20.0534 21.2569 12.8981 14.1235 13.5173C6.99085 14.142 1.86795 22.3053 2.67953 31.7549C3.49218 41.2028 9.93267 48.358 17.0652 47.737Z" fill="CurrentColor"/>
<path d="M72.619 47.4167C78.8798 51.1219 87.8757 47.4008 92.714 39.1091C97.5523 30.8119 96.3991 21.0894 90.1374 17.3844C83.8769 13.6826 74.879 17.4055 70.0416 25.6972C65.2037 33.9928 66.3585 43.7151 72.619 47.4167Z" fill="CurrentColor"/>
<path d="M106.151 57.2463C102.092 51.3083 92.5123 50.8493 84.7525 56.2242C76.9909 61.6026 73.9916 70.774 78.0497 76.7137C82.1078 82.6514 91.6882 83.1108 99.4482 77.734C107.207 72.3574 110.208 63.186 106.151 57.2463Z" fill="CurrentColor"/>
<path d="M64.4698 58.367C63.6956 52.9729 60.4117 48.0536 55.1627 45.5587C49.9148 43.0656 44.0552 43.6411 39.429 46.4665C34.3156 49.591 31.0447 53.6728 26.6406 55.4569C22.2371 57.2408 9.90304 51.9276 2.22368 65.9689C-3.20002 75.8865 1.77885 88.4239 11.9466 93.2549C19.6748 96.9268 25.7914 96.5168 30.2817 98.6491C34.7715 100.781 38.3456 105.798 46.0732 109.469C56.2407 114.3 69.017 110.201 73.1722 99.6801C79.0554 84.7853 67.1396 78.5764 65.7069 74.0196C64.2756 69.4634 65.3259 64.3258 64.4698 58.367Z" fill="CurrentColor"/>
<path d="M132.983 87.3047C136.517 84.8045 136.723 78.9798 133.444 74.2939C130.165 69.6089 124.643 67.8382 121.11 70.3384C117.577 72.8404 117.371 78.6642 120.649 83.35C123.929 88.0351 129.451 89.8058 132.983 87.3047Z" fill="CurrentColor"/>
<path d="M131.18 104.961C133.295 101.24 131.064 95.9454 126.194 93.1314C121.325 90.3194 115.663 91.056 113.546 94.7757C111.432 98.497 113.664 103.792 118.533 106.605C123.402 109.417 129.064 108.681 131.18 104.961Z" fill="CurrentColor"/>
<path d="M149.891 77.4855C153.815 75.6649 155.055 69.974 152.664 64.7747C150.269 59.5735 145.151 56.8356 141.227 58.6566C137.305 60.4783 136.065 66.1708 138.456 71.3697C140.85 76.5701 145.969 79.3073 149.891 77.4855Z" fill="CurrentColor"/>
<path d="M166.028 64.3072C161.764 64.2855 158.293 68.8431 158.276 74.4889C158.26 80.1367 161.703 84.731 165.967 84.7537C170.23 84.7758 173.702 80.218 173.718 74.5714C173.734 68.9254 170.292 64.3304 166.028 64.3072Z" fill="CurrentColor"/>
<path d="M152.41 85.2172C149.524 83.7641 146.019 83.7073 143.026 85.4418C140.034 87.1764 138.327 90.2554 138.133 93.4924C137.918 97.0709 138.794 100.068 138.169 102.842C137.543 105.615 130.778 109.878 135.002 118.431C137.986 124.472 145.771 126.285 151.568 122.924C155.974 120.37 157.848 117.221 160.408 115.736C162.967 114.252 166.618 114.199 171.023 111.645C176.82 108.285 179.159 100.604 175.451 94.9822C170.202 87.0228 163.143 90.775 160.441 89.9306C157.74 89.0857 155.598 86.822 152.41 85.2172Z" fill="CurrentColor"/>
</svg>
