<svg viewBox="0 0 65 66" fill="none" xmlns="http://www.w3.org/2000/svg">
<mask id="mask0_58_311" style="mask-type:luminance" maskUnits="userSpaceOnUse" x="0" y="0" width="65" height="66">
<path d="M65 0.5H0V65.5H65V0.5Z" fill="white"/>
</mask>
<g mask="url(#mask0_58_311)">
<path d="M0 31.7C0 16.9922 0 9.63828 4.56914 5.06914C9.13828 0.5 16.4922 0.5 31.2 0.5H33.8C48.5078 0.5 55.8617 0.5 60.4309 5.06914C65 9.63828 65 16.9922 65 31.7V34.3C65 49.0078 65 56.3617 60.4309 60.9309C55.8617 65.5 48.5078 65.5 33.8 65.5H31.2C16.4922 65.5 9.13828 65.5 4.56914 60.9309C0 56.3617 0 49.0078 0 34.3V31.7Z" fill="CurrentColor"/>
<path d="M34.5856 47.3297C19.771 47.3297 11.3211 37.1734 10.969 20.2734H18.3898C18.6336 32.6776 24.1043 37.9317 28.4376 39.0151V20.2734H35.4254V30.9713C39.7045 30.5109 44.1998 25.6359 45.7165 20.2734H52.7042C51.5396 26.8818 46.6646 31.7567 43.1979 33.7609C46.6646 35.3859 52.217 39.638 54.3295 47.3297H46.6376C44.9854 42.1838 40.8691 38.2026 35.4254 37.6609V47.3297H34.5856Z" fill="white"/>
</g>
</svg>
